<?xml version="1.0" encoding="UTF-8" standalone="no"?>
<!-- Created with Inkscape (http://www.inkscape.org/) -->

<svg
   width="209.76276mm"
   height="22.182425mm"
   viewBox="0 0 209.76276 22.182425"
   version="1.1"
   id="svg1"
   xml:space="preserve"
   xmlns="http://www.w3.org/2000/svg"
   xmlns:svg="http://www.w3.org/2000/svg"><defs
     id="defs1" /><g
     id="layer1"
     transform="translate(-0.13440052,-98.61812)"><path
       style="fill:#000000;stroke-width:1.07847"
       d="m 0.13440051,119.94462 v -0.85673 l 69.37231449,-0.003 69.372315,-0.003 2.61528,-2.58175 c 1.43839,-1.41996 6.08012,-6.02478 10.31494,-10.23292 4.23482,-4.20814 7.74514,-7.650238 7.80072,-7.649103 0.0555,0.0012 2.79974,2.677683 6.09813,5.947883 l 5.99709,5.94582 19.09599,0.004 19.09598,0.004 v 0.94691 0.94691 h -19.29692 -19.29693 l -2.63978,-2.59103 c -1.45188,-1.42506 -3.63405,-3.56693 -4.84924,-4.75972 -1.2152,-1.19278 -2.68738,-2.63304 -3.27153,-3.20056 l -1.06207,-1.03188 -9.98534,9.98505 -9.98535,9.98504 H 69.822199 0.13440051 Z M 151.235,111.70985 c 0.24741,-0.23872 1.06689,-1.03555 1.82106,-1.77073 l 1.37122,-1.33671 1.24406,1.18109 1.24404,1.18111 0.67532,-0.6726 0.67532,-0.67257 0.74084,0.78877 0.74084,0.78877 1.79339,-1.84762 1.79341,-1.84761 2.35916,2.29374 c 1.29755,1.26155 2.35916,2.30603 2.35916,2.32107 0,0.015 -3.88521,0.0274 -8.63382,0.0274 h -8.63383 z M 20.036781,110.84278 c -0.677267,-0.18209 -1.324939,-0.91123 -1.324939,-1.49163 0,-0.16182 0.05753,-0.18326 0.491768,-0.18326 0.471257,0 0.497879,0.0128 0.638241,0.30867 0.179471,0.37821 0.601132,0.59315 1.163606,0.59315 1.045143,0 1.562555,-0.66679 0.974065,-1.25528 -0.188282,-0.18828 -0.403781,-0.277 -0.879273,-0.36198 -1.279685,-0.22872 -1.645797,-0.36655 -1.992237,-0.75001 -0.31999,-0.3542 -0.324155,-0.36881 -0.291184,-1.02175 0.03085,-0.6111 0.05731,-0.68702 0.341568,-0.9803 0.435902,-0.44974 0.982966,-0.63744 1.829823,-0.62786 1.190773,0.0135 1.980386,0.56093 2.069772,1.435 0.02748,0.26873 0.02434,0.27071 -0.468334,0.29439 -0.481137,0.0231 -0.500053,0.015 -0.631272,-0.27054 -0.39234,-0.85383 -2.164362,-0.76259 -2.164362,0.11142 0,0.40927 0.317041,0.59173 1.487999,0.85634 0.613935,0.13874 1.222409,0.33458 1.406268,0.45261 0.378415,0.24292 0.622822,0.70125 0.622822,1.16796 0,0.45633 -0.319315,1.15601 -0.633615,1.38838 -0.56161,0.41522 -1.771043,0.5685 -2.640716,0.33469 z m 6.643358,0.0484 c -0.475799,-0.12307 -0.9428,-0.4682 -1.215603,-0.89838 l -0.259608,-0.40935 v -2.23689 -2.23688 h 0.541091 0.541091 v 2.14273 2.14274 l 0.228134,0.24603 c 0.27792,0.29973 0.543647,0.37375 1.137007,0.31674 0.30221,-0.029 0.518739,-0.10871 0.648928,-0.23878 0.186882,-0.18669 0.197345,-0.29025 0.240475,-2.37978 l 0.04509,-2.18459 h 0.496 0.496 l 0.02407,2.20978 c 0.02335,2.14326 0.01791,2.2218 -0.180364,2.60863 -0.294927,0.57535 -0.925032,0.90986 -1.801586,0.9564 -0.361566,0.0192 -0.784894,0.002 -0.940727,-0.0384 z m 41.245102,-0.0423 c -1.565662,-0.44182 -2.324446,-2.55774 -1.540708,-4.29638 0.405042,-0.89855 1.057725,-1.34527 2.183703,-1.49464 0.541155,-0.0718 1.552216,0.20658 1.908936,0.52558 1.200635,1.07368 1.374595,3.20477 0.365594,4.47873 -0.570586,0.72043 -1.890832,1.07643 -2.917525,0.78671 z m 1.918282,-1.27395 c 0.425558,-0.41555 0.57088,-0.80005 0.579928,-1.53443 0.0082,-0.66796 -0.226731,-1.3134 -0.589134,-1.61834 -0.532711,-0.44824 -1.353663,-0.50392 -1.963352,-0.13315 -0.687851,0.41831 -0.952271,1.81885 -0.517968,2.74348 0.355633,0.75715 0.699962,0.95905 1.56757,0.91918 0.517832,-0.0238 0.592887,-0.0545 0.922956,-0.37674 z m 11.577718,1.27365 c -0.531718,-0.17471 -0.959717,-0.53177 -1.189911,-0.99269 -0.191124,-0.38268 -0.198222,-0.48613 -0.175005,-2.55004 l 0.0242,-2.15116 h 0.541091 0.54109 l 0.02414,2.18022 0.02414,2.18023 0.275877,0.23213 c 0.227789,0.19167 0.36811,0.23213 0.805018,0.23213 0.429177,0 0.576945,-0.0411 0.782171,-0.21747 l 0.25303,-0.21749 0.04509,-2.19488 0.04509,-2.19487 0.352131,-0.0288 c 0.193671,-0.0159 0.450415,-0.004 0.57054,0.026 l 0.21841,0.0548 -0.02945,2.24354 -0.02945,2.24354 -0.27137,0.3859 c -0.376957,0.53603 -0.932198,0.80372 -1.768356,0.85253 -0.419913,0.0245 -0.803356,-0.006 -1.038464,-0.0836 z m 35.292699,0.0301 c -0.74452,-0.18767 -1.35476,-0.7194 -1.70473,-1.48541 -0.29114,-0.63725 -0.29911,-2.14196 -0.0147,-2.76157 0.57121,-1.24408 1.92137,-1.86054 3.24062,-1.47963 1.23079,0.35538 1.93109,1.39628 1.93109,2.87031 0,1.25291 -0.576,2.2844 -1.50516,2.69541 -0.458,0.2026 -1.45497,0.28496 -1.94722,0.16089 z m 1.45032,-1.02592 c 0.59908,-0.31172 0.92013,-0.93565 0.91937,-1.78677 -6.7e-4,-0.7609 -0.12923,-1.17637 -0.47864,-1.54685 -0.7505,-0.79577 -2.07823,-0.58236 -2.57244,0.41347 -0.36888,0.74327 -0.25292,1.98581 0.23685,2.53791 0.43634,0.49189 1.33548,0.67327 1.89486,0.38224 z m 5.58385,1.02592 c -0.52825,-0.13315 -0.82556,-0.31786 -1.20434,-0.74817 -0.86483,-0.98251 -0.98623,-2.6732 -0.27684,-3.8555 0.36601,-0.60998 0.84432,-0.94302 1.6306,-1.13536 0.53347,-0.13049 0.69648,-0.13583 1.16866,-0.0383 0.97291,0.20096 1.45104,0.58606 1.88865,1.52118 0.25245,0.53948 0.26362,0.61439 0.22884,1.5337 -0.039,1.03124 -0.12121,1.28292 -0.63061,1.93119 -0.5192,0.66075 -1.84218,1.03396 -2.80496,0.79127 z m 1.67746,-1.14722 c 0.50507,-0.38153 0.7338,-0.92486 0.73084,-1.736 -0.004,-1.04124 -0.41004,-1.68274 -1.19807,-1.89197 -0.76874,-0.2041 -1.48905,0.0864 -1.83145,0.73862 -0.16438,0.31309 -0.20308,0.53287 -0.20308,1.15335 0,0.86446 0.19581,1.37856 0.64483,1.693 0.35297,0.24718 0.45648,0.27585 1.02461,0.28388 0.41663,0.005 0.56094,-0.0359 0.83232,-0.24088 z m 10.65783,1.16141 c -0.66006,-0.17469 -1.11166,-0.548 -1.34843,-1.11466 -0.2353,-0.56317 -0.20554,-0.61039 0.38482,-0.61039 0.51206,0 0.52798,0.008 0.67727,0.32063 0.18372,0.38524 0.59303,0.58176 1.20781,0.57986 0.50524,-10e-4 0.79589,-0.13133 1.04461,-0.46639 0.15967,-0.21509 0.16668,-0.274 0.0626,-0.52553 -0.16531,-0.39907 -0.36255,-0.49396 -1.48749,-0.71556 -1.11023,-0.21872 -1.43981,-0.3729 -1.73569,-0.81194 -0.4218,-0.62592 -0.17339,-1.68268 0.50263,-2.13825 0.91979,-0.61984 2.7127,-0.41213 3.32046,0.38468 0.12568,0.16477 0.25047,0.46342 0.27733,0.66367 l 0.0489,0.3641 h -0.50295 c -0.45495,0 -0.51418,-0.0229 -0.62061,-0.23988 -0.16645,-0.33941 -0.52341,-0.57681 -0.95419,-0.63459 -0.72982,-0.0979 -1.19254,0.18812 -1.19254,0.73712 0,0.41328 0.18742,0.52755 1.26254,0.76969 1.18831,0.26763 1.55139,0.41003 1.85594,0.72791 0.24477,0.25549 0.26333,0.32422 0.26333,0.97488 0,0.623 -0.027,0.73542 -0.24555,1.02194 -0.36772,0.48212 -0.92924,0.71563 -1.81067,0.75298 -0.40668,0.0173 -0.86116,-8.9e-4 -1.00996,-0.0402 z m -104.364125,-2.91996 0.02384,-2.81817 0.789421,-0.0261 c 0.74957,-0.0247 0.793694,-0.0156 0.874032,0.18036 0.04654,0.11353 0.298869,1.08821 0.56074,2.16594 0.261872,1.07773 0.502101,1.92995 0.533842,1.89382 0.0697,-0.0794 0.984508,-3.81561 0.984508,-4.02093 0,-0.19318 0.281761,-0.25291 1.038976,-0.22027 l 0.629385,0.0272 0.02383,2.81817 0.02383,2.81818 h -0.542375 -0.542376 v -2.16435 c 0,-1.1904 -0.03258,-2.16437 -0.07241,-2.16437 -0.03983,0 -0.139266,0.3348 -0.220983,0.74399 -0.206391,1.0335 -0.599833,2.8405 -0.706879,3.24656 l -0.08916,0.33817 h -0.532149 c -0.292681,0 -0.55123,-0.0308 -0.574553,-0.0686 -0.02333,-0.0377 -0.231855,-0.94069 -0.463402,-2.00654 -0.231549,-1.06587 -0.455605,-2.0191 -0.497904,-2.1183 -0.04547,-0.10666 -0.0794,0.71353 -0.08301,2.00655 l -0.0061,2.1869 h -0.587467 -0.587466 z m 7.485086,0 0.02383,-2.81817 0.784078,-0.026 c 0.678017,-0.0224 0.795295,-0.004 0.867005,0.13527 0.04561,0.0886 0.296591,1.04391 0.557735,2.12271 0.261144,1.07881 0.506823,1.96145 0.545954,1.96145 0.03913,0 0.160938,-0.39567 0.270682,-0.87927 0.109744,-0.4836 0.336276,-1.42358 0.503403,-2.08886 0.167127,-0.66527 0.303868,-1.22327 0.303868,-1.24 0,-0.0167 0.365236,-0.0304 0.811635,-0.0304 h 0.811636 v 2.84072 2.84072 h -0.54109 -0.541091 l -0.0061,-2.232 c -0.0039,-1.43883 -0.03569,-2.1679 -0.08935,-2.05163 -0.104267,0.2259 -0.896547,3.84822 -0.896547,4.09902 0,0.16781 -0.05541,0.1846 -0.608728,0.18451 l -0.608726,-9e-5 -0.216984,-1.01445 c -0.459468,-2.14812 -0.712796,-3.23683 -0.765408,-3.28944 -0.03008,-0.0301 -0.0547,0.92602 -0.0547,2.12469 v 2.17939 H 39.767996 39.18053 Z m 7.50471,2.70447 c -0.024,-0.0626 -0.03287,-1.33072 -0.01971,-2.81818 l 0.02392,-2.70446 h 0.54109 0.541091 l 0.02383,2.81817 0.02383,2.81818 h -0.545205 c -0.355493,0 -0.560389,-0.0396 -0.588842,-0.11371 z m 4.468203,-2.23101 v -2.34473 h -0.86144 -0.861439 l 0.02725,-0.47345 0.02726,-0.47345 h 2.209453 2.209452 v 0.4509 0.45091 l -0.789089,0.0261 -0.78909,0.0261 v 2.34121 2.34122 h -0.586182 -0.586181 z m 7.575267,-0.43696 c 0,-2.46119 0.01682,-2.79675 0.142648,-2.84503 0.07846,-0.0301 0.444563,-0.0547 0.81357,-0.0547 0.611473,0 0.67815,0.018 0.75251,0.20291 0.04488,0.1116 0.287019,1.05126 0.5381,2.08815 0.428744,1.77058 0.506839,2.03306 0.57721,1.93997 0.046,-0.0608 0.967889,-3.90482 0.965645,-4.02641 -0.0029,-0.15986 0.318098,-0.21766 1.036927,-0.18667 l 0.629386,0.0272 0.02383,2.81818 0.02383,2.81818 h -0.542375 -0.542375 v -2.16436 c 0,-1.38279 -0.03257,-2.16437 -0.09018,-2.16437 -0.0496,0 -0.09018,0.0661 -0.09018,0.14695 0,0.15261 -0.644514,3.12615 -0.823327,3.79851 l -0.101927,0.38327 h -0.524048 c -0.288226,0 -0.543779,-0.0319 -0.567896,-0.071 -0.02412,-0.0391 -0.229908,-0.92168 -0.457315,-1.96146 -0.227407,-1.03978 -0.443417,-1.99196 -0.48002,-2.11596 -0.0366,-0.12401 -0.08684,0.74851 -0.111643,1.93891 l -0.04509,2.16436 -0.563635,0.0268 -0.563636,0.0268 z m 14.699626,-0.059 v -2.84072 h 1.336357 c 2.032447,0 2.509857,0.21688 3.042317,1.38211 0.222691,0.48733 0.237397,0.5951 0.203046,1.48799 -0.03314,0.8614 -0.0665,1.01951 -0.317213,1.50371 -0.309712,0.59812 -0.747938,1.06541 -1.136562,1.21192 -0.140235,0.0528 -0.897108,0.0958 -1.690908,0.0958 h -1.437037 z m 2.886277,1.61213 c 0.64965,-0.58692 0.822708,-1.92313 0.365216,-2.81988 -0.282896,-0.55452 -0.468724,-0.64098 -1.377743,-0.64098 h -0.79157 v 1.8337 c 0,1.00853 0.02706,1.86076 0.06012,1.89382 0.03307,0.0331 0.357604,0.0601 0.721194,0.0601 0.633139,0 0.676358,-0.0138 1.022781,-0.32678 z m 10.370441,-1.61034 v -2.84251 h 0.539593 0.539593 l 0.02404,2.36726 0.02404,2.36727 1.370827,0.0249 1.370828,0.0249 -0.01824,0.42604 -0.01824,0.42604 -1.916228,0.0244 -1.916228,0.0244 z m 5.497649,2.36549 c 0.09592,-0.26041 0.524002,-1.48692 0.951302,-2.72559 0.427299,-1.23866 0.819912,-2.30393 0.872473,-2.36727 0.115876,-0.13962 1.208386,-0.15853 1.292538,-0.0223 0.03154,0.051 0.456315,1.25835 0.94395,2.68291 0.487635,1.42457 0.914968,2.66115 0.949629,2.74796 0.05619,0.1407 -0.0014,0.15781 -0.531091,0.15781 -0.573551,0 -0.596175,-0.009 -0.653718,-0.248 -0.03278,-0.1364 -0.131983,-0.39264 -0.220444,-0.5694 l -0.160839,-0.32141 -1.021272,0.0128 -1.021273,0.0128 -0.218776,0.55653 -0.218776,0.55652 H 92.601188 92.03214 Z m 3.17422,-1.64522 c 0.02446,-0.0245 -0.116446,-0.51392 -0.313135,-1.08768 -0.196689,-0.57377 -0.38887,-1.01029 -0.427068,-0.97007 -0.08111,0.0854 -0.626944,1.81442 -0.626944,1.98593 0,0.0843 0.181514,0.11631 0.661333,0.11631 0.363733,0 0.681349,-0.0201 0.705814,-0.0445 z m 3.704285,-0.69518 0.02383,-2.82251 1.758541,3.2e-4 c 1.96476,3.7e-4 2.16553,0.0492 2.51239,0.61038 0.4248,0.68734 0.29736,1.63344 -0.28097,2.08606 l -0.27953,0.21877 0.27798,0.2339 c 0.26805,0.22555 0.28028,0.26772 0.34257,1.18144 0.0355,0.52115 0.10029,0.96961 0.14389,0.99657 0.0436,0.027 0.0793,0.10752 0.0793,0.17897 0,0.16602 -1.12589,0.1879 -1.22729,0.0238 -0.036,-0.0583 -0.0894,-0.50817 -0.11852,-0.99961 -0.0668,-1.12632 -0.091,-1.14884 -1.23552,-1.14884 -0.99397,0 -0.94926,-0.0618 -0.92235,1.27447 l 0.0188,0.93498 -0.558502,0.0269 -0.558503,0.0268 z m 3.049921,-0.43537 c 0.44938,-0.2405 0.56389,-1.14213 0.17171,-1.35201 -0.10094,-0.054 -0.59079,-0.0834 -1.14593,-0.0687 l -0.96968,0.0256 -0.0276,0.53734 c -0.0493,0.959 -0.0575,0.95067 0.93707,0.95067 0.47351,0 0.93901,-0.0418 1.03444,-0.0929 z m 6.68971,0.43537 0.0238,-2.82251 1.25059,-0.0251 c 2.30222,-0.0463 2.84364,0.2298 2.99592,1.52793 0.10644,0.90705 -0.26675,1.64872 -0.99623,1.98008 -0.27217,0.12363 -0.58635,0.16605 -1.24068,0.16753 l -0.87622,0.002 -0.0256,0.96945 -0.0256,0.96945 -0.56492,0.0269 -0.56493,0.0269 z m 3.01908,-0.51367 c 0.25642,-0.38103 0.26384,-0.81344 0.0193,-1.12432 -0.17832,-0.22668 -0.22605,-0.23762 -1.0371,-0.23762 h -0.85018 v 0.86012 0.8601 l 0.83088,-0.0259 0.83088,-0.0259 z m 17.362,0.50933 0.0238,-2.81817 0.35213,-0.0288 c 0.7818,-0.064 0.73005,-0.23357 0.73005,2.39212 v 2.32615 l 1.37527,0.0249 1.37527,0.0249 v 0.44856 0.44856 h -1.9402 -1.94018 z"
       id="path1" /></g></svg>
